<svg width="43" height="52" viewBox="0 0 43 52" fill="none" xmlns="http://www.w3.org/2000/svg">
<path d="M26.7483 10.6625V11.8179C25.4388 11.8565 24.4374 12.0105 23.7441 12.2801C23.0894 12.5112 22.6465 12.9734 22.4154 13.6666C22.1843 14.3214 22.0687 15.3613 22.0687 16.7863V45.441C22.0687 46.8276 22.1843 47.8675 22.4154 48.5607C22.6465 49.254 23.0894 49.7161 23.7441 49.9472C24.4374 50.1398 25.4388 50.2361 26.7483 50.2361H30.9656C32.7758 50.2361 34.2393 50.0435 35.3562 49.6584C36.5117 49.2732 37.4168 48.6763 38.0715 47.8675C38.7648 47.0201 39.2847 45.9032 39.6313 44.5167C39.978 43.1302 40.2476 41.4355 40.4401 39.4328H41.7689C41.6533 40.6267 41.5956 42.2058 41.5956 44.1701C41.5956 44.9018 41.6148 45.961 41.6533 47.3475C41.7304 48.6955 41.8459 50.1013 42 51.5648C40.0357 51.4878 37.8212 51.4493 35.3562 51.4493C32.8913 51.4108 30.696 51.3915 28.7703 51.3915C27.9229 51.3915 26.8253 51.3915 25.4773 51.3915C24.1678 51.3915 22.7428 51.4108 21.2022 51.4493C19.6616 51.4493 18.1018 51.4686 16.5227 51.5071C14.9436 51.5071 13.4415 51.5263 12.0165 51.5648V50.4094C13.326 50.3324 14.3081 50.1783 14.9628 49.9472C15.6561 49.7161 16.1183 49.254 16.3494 48.5607C16.5804 47.8675 16.696 46.8276 16.696 45.441V16.7863C16.696 15.3613 16.5804 14.3214 16.3494 13.6666C16.1183 12.9734 15.6561 12.5112 14.9628 12.2801C14.3081 12.0105 13.326 11.8565 12.0165 11.8179V10.6625C12.8253 10.701 13.8844 10.7395 15.1939 10.778C16.5034 10.8166 17.9092 10.8358 19.4113 10.8358C20.7593 10.8358 22.088 10.8166 23.3975 10.778C24.7455 10.7395 25.8624 10.701 26.7483 10.6625Z" fill="#161E22"/>
<path d="M22.5418 4.06207C29.4359 4.06207 34.5583 5.79522 37.9091 9.26152C41.2598 12.6893 42.9352 17.6192 42.9352 24.0511C42.9352 28.2491 42.1071 31.9273 40.451 35.0855C38.8334 38.2051 31.4242 44.7911 31.4242 44.7911C31.4242 44.7911 34.8472 37.897 35.7715 34.9699C36.6959 32.0428 37.158 28.4802 37.158 24.2822C37.158 19.9685 36.6381 16.406 35.5982 13.5944C34.5968 10.7443 32.9214 8.62603 30.5721 7.23951C28.2612 5.81448 25.103 5.10196 21.0975 5.10196C19.3259 5.10196 18.1704 5.42933 17.6312 6.08408C17.092 6.73883 16.8224 8.06757 16.8224 10.0703V38.9562C16.8224 40.9589 17.092 42.2877 17.6312 42.9424C18.2089 43.5972 20.2502 44.9644 22.0219 44.9644C21.4441 44.9644 20.6739 44.9452 19.711 44.9066C18.7481 44.8681 17.7468 44.8489 16.7069 44.8489C15.7055 44.8104 14.7811 44.7911 13.9338 44.7911C12.5858 44.7911 11.2571 44.8104 9.94758 44.8489C8.63809 44.8489 7.57894 44.8874 6.77014 44.9644V43.809C8.07963 43.732 9.06175 43.5779 9.7165 43.3468C10.4098 43.1157 10.8719 42.6535 11.103 41.9603C11.3341 41.267 11.4496 40.2271 11.4496 38.8406V10.1859C11.4496 8.76083 11.3341 7.72094 11.103 7.0662C10.8719 6.37294 10.4098 5.91077 9.7165 5.67968C9.06175 5.41008 8.07963 5.25602 6.77014 5.2175V4.06207C7.57894 4.10059 8.63809 4.15836 9.94758 4.23539C11.2571 4.2739 12.5473 4.2739 13.8183 4.23539C15.1663 4.19687 16.6876 4.15836 18.3822 4.11984C20.0769 4.08133 21.4634 4.06207 22.5418 4.06207Z" fill="#161E22" fill-opacity="0.2"/>
<path d="M15.7717 0C22.6658 0 27.7882 1.73315 31.1389 5.19945C34.4897 8.62723 36.1651 13.5571 36.1651 19.989C36.1651 24.1871 35.337 27.8652 33.6809 31.0234C32.0633 34.1431 24.6541 40.729 24.6541 40.729C24.6541 40.729 28.077 33.8349 29.0014 30.9078C29.9257 27.9807 30.3879 24.4182 30.3879 20.2201C30.3879 15.9065 29.868 12.3439 28.8281 9.53232C27.8267 6.68225 26.1513 4.56396 23.8019 3.17744C21.4911 1.7524 18.3329 1.03989 14.3274 1.03989C12.5557 1.03989 11.4003 1.36726 10.8611 2.02201C10.3219 2.67675 10.0523 4.0055 10.0523 6.00825V34.8941C10.0523 36.8968 10.3219 38.2256 10.8611 38.8803C11.4388 39.5351 13.4801 40.9023 15.2517 40.9023C14.674 40.9023 13.9037 40.8831 12.9409 40.8446C11.978 40.806 10.9766 40.7868 9.93673 40.7868C8.93535 40.7483 8.011 40.729 7.16369 40.729C5.81568 40.729 4.48693 40.7483 3.17744 40.7868C1.86795 40.7868 0.808803 40.8253 0 40.9023V39.7469C1.30949 39.6699 2.29161 39.5158 2.94636 39.2847C3.63962 39.0536 4.10179 38.5915 4.33288 37.8982C4.56396 37.2049 4.6795 36.1651 4.6795 34.7785V6.12379C4.6795 4.69876 4.56396 3.65887 4.33288 3.00413C4.10179 2.31087 3.63962 1.84869 2.94636 1.61761C2.29161 1.348 1.30949 1.19395 0 1.15543V0C0.808803 0.0385139 1.86795 0.0962849 3.17744 0.173313C4.48693 0.211827 5.77717 0.211827 7.04814 0.173313C8.39615 0.134799 9.91747 0.0962849 11.6121 0.0577709C13.3067 0.019257 14.6933 0 15.7717 0Z" fill="#161E22"/>
</svg>
