<svg width="96" height="115" viewBox="0 0 96 115" fill="none" xmlns="http://www.w3.org/2000/svg">
<path d="M59.264 23.624V26.184C56.3627 26.2694 54.144 26.6107 52.608 27.208C51.1573 27.72 50.176 28.744 49.664 30.28C49.152 31.7307 48.896 34.0347 48.896 37.192V100.68C48.896 103.752 49.152 106.056 49.664 107.592C50.176 109.128 51.1573 110.152 52.608 110.664C54.144 111.091 56.3627 111.304 59.264 111.304H68.608C72.6187 111.304 75.8613 110.877 78.336 110.024C80.896 109.171 82.9013 107.848 84.352 106.056C85.888 104.179 87.04 101.704 87.808 98.632C88.576 95.56 89.1733 91.8054 89.6 87.368H92.544C92.288 90.0134 92.16 93.512 92.16 97.864C92.16 99.4854 92.2027 101.832 92.288 104.904C92.4587 107.891 92.7147 111.005 93.056 114.248C88.704 114.077 83.7973 113.992 78.336 113.992C72.8747 113.907 68.0107 113.864 63.744 113.864C61.8667 113.864 59.4347 113.864 56.448 113.864C53.5467 113.864 50.3893 113.907 46.976 113.992C43.5627 113.992 40.1067 114.035 36.608 114.12C33.1093 114.12 29.7813 114.163 26.624 114.248V111.688C29.5253 111.517 31.7013 111.176 33.152 110.664C34.688 110.152 35.712 109.128 36.224 107.592C36.736 106.056 36.992 103.752 36.992 100.68V37.192C36.992 34.0347 36.736 31.7307 36.224 30.28C35.712 28.744 34.688 27.72 33.152 27.208C31.7013 26.6107 29.5253 26.2694 26.624 26.184V23.624C28.416 23.7094 30.7627 23.7947 33.664 23.88C36.5653 23.9654 39.68 24.008 43.008 24.008C45.9947 24.008 48.9387 23.9654 51.84 23.88C54.8267 23.7947 57.3013 23.7094 59.264 23.624Z" fill="white"/>
<path d="M49.944 9C65.2187 9 76.568 12.84 83.992 20.52C91.416 28.1147 95.128 39.0373 95.128 53.288C95.128 62.5893 93.2933 70.7387 89.624 77.736C86.04 84.648 69.624 99.24 69.624 99.24C69.624 99.24 77.208 83.9653 79.256 77.48C81.304 70.9947 82.328 63.1013 82.328 53.8C82.328 44.2427 81.176 36.3493 78.872 30.12C76.6533 23.8053 72.9413 19.112 67.736 16.04C62.616 12.8827 55.6187 11.304 46.744 11.304C42.8187 11.304 40.2587 12.0293 39.064 13.48C37.8693 14.9307 37.272 17.8747 37.272 22.312V86.312C37.272 90.7493 37.8693 93.6933 39.064 95.144C40.344 96.5947 44.8667 99.624 48.792 99.624C47.512 99.624 45.8053 99.5813 43.672 99.496C41.5387 99.4107 39.32 99.368 37.016 99.368C34.7973 99.2827 32.7493 99.24 30.872 99.24C27.8853 99.24 24.9413 99.2827 22.04 99.368C19.1387 99.368 16.792 99.4533 15 99.624V97.064C17.9013 96.8933 20.0773 96.552 21.528 96.04C23.064 95.528 24.088 94.504 24.6 92.968C25.112 91.432 25.368 89.128 25.368 86.056V22.568C25.368 19.4107 25.112 17.1067 24.6 15.656C24.088 14.12 23.064 13.096 21.528 12.584C20.0773 11.9867 17.9013 11.6453 15 11.56V9C16.792 9.08533 19.1387 9.21333 22.04 9.384C24.9413 9.46933 27.8 9.46933 30.616 9.384C33.6027 9.29866 36.9733 9.21333 40.728 9.128C44.4827 9.04267 47.5547 9 49.944 9Z" fill="white" fill-opacity="0.2"/>
<path d="M34.944 0C50.2187 0 61.568 3.84 68.992 11.52C76.416 19.1147 80.128 30.0373 80.128 44.288C80.128 53.5893 78.2933 61.7387 74.624 68.736C71.04 75.648 54.624 90.24 54.624 90.24C54.624 90.24 62.208 74.9653 64.256 68.48C66.304 61.9947 67.328 54.1013 67.328 44.8C67.328 35.2427 66.176 27.3493 63.872 21.12C61.6533 14.8053 57.9413 10.112 52.736 7.03999C47.616 3.88266 40.6187 2.30399 31.744 2.30399C27.8187 2.30399 25.2587 3.02933 24.064 4.48C22.8693 5.93066 22.272 8.87466 22.272 13.312V77.312C22.272 81.7493 22.8693 84.6933 24.064 86.144C25.344 87.5947 29.8667 90.624 33.792 90.624C32.512 90.624 30.8053 90.5813 28.672 90.496C26.5387 90.4107 24.32 90.368 22.016 90.368C19.7973 90.2827 17.7493 90.24 15.872 90.24C12.8853 90.24 9.94133 90.2827 7.04 90.368C4.13867 90.368 1.792 90.4533 0 90.624V88.064C2.90133 87.8933 5.07733 87.552 6.528 87.04C8.064 86.528 9.088 85.504 9.6 83.968C10.112 82.432 10.368 80.128 10.368 77.056V13.568C10.368 10.4107 10.112 8.10666 9.6 6.656C9.088 5.12 8.064 4.096 6.528 3.584C5.07733 2.98666 2.90133 2.64533 0 2.56V0C1.792 0.0853322 4.13867 0.213331 7.04 0.383995C9.94133 0.469327 12.8 0.469327 15.616 0.383995C18.6027 0.298663 21.9733 0.213331 25.728 0.127998C29.4827 0.0426661 32.5547 0 34.944 0Z" fill="white"/>
</svg>
